<svg id="Layer_1" data-name="Layer 1" xmlns="http://www.w3.org/2000/svg" viewBox="0 0 272.94 266.85"><title>image (5)</title><path d="M150.55,167A74.22,74.22,0,1,1,224.78,92.8,74.31,74.31,0,0,1,150.55,167Zm0-135.22a61,61,0,1,0,61,61A61.06,61.06,0,0,0,150.55,31.81Z" transform="translate(-14.09 -16.57)" style="fill:#fff;stroke:#fff;stroke-miterlimit:10;stroke-width:4px"/><path d="M278.41,281.43a6.61,6.61,0,0,1-6.62-6.62V255.73A47.83,47.83,0,0,0,224,208H77.09a47.83,47.83,0,0,0-47.77,47.77v19.08a6.61,6.61,0,1,1-13.23,0V255.73a61.07,61.07,0,0,1,61-61H224a61.07,61.07,0,0,1,61,61v19.08A6.62,6.62,0,0,1,278.41,281.43Z" transform="translate(-14.09 -16.57)" style="fill:#fff;stroke:#fff;stroke-miterlimit:10;stroke-width:4px"/></svg>